<?xml version="1.0" encoding="UTF-8"?>
<svg xmlns="http://www.w3.org/2000/svg" xmlns:xlink="http://www.w3.org/1999/xlink" width="200px" height="66px" viewBox="0 0 198 66" version="1.1">
<g id="surface1">
<path style=" stroke:none;fill-rule:nonzero;fill:rgb(0%,0%,0%);fill-opacity:1;" d="M 84.78125 12.28125 C 84.535156 12.96875 84.589844 54.160156 84.863281 54.578125 C 85 54.796875 85.4375 54.90625 85.875 54.851562 L 86.667969 54.769531 L 86.667969 12 L 85.820312 11.921875 C 85.21875 11.867188 84.917969 11.976562 84.78125 12.28125 Z M 84.78125 12.28125 "/>
<path style=" stroke:none;fill-rule:nonzero;fill:rgb(0%,0%,0%);fill-opacity:1;" d="M 138.785156 13.492188 C 138.621094 13.769531 137.992188 14.210938 137.386719 14.457031 C 136.675781 14.734375 136.296875 15.066406 136.296875 15.398438 C 136.296875 15.976562 132.90625 25.109375 130.851562 30.074219 C 129.242188 33.910156 128.777344 34.546875 127.027344 35.425781 C 125.6875 36.0625 125.328125 36.558594 126.097656 36.75 C 126.371094 36.808594 128.421875 36.78125 130.664062 36.695312 C 134.984375 36.558594 135.964844 36.199219 133.859375 35.566406 C 133.257812 35.375 132.550781 34.984375 132.277344 34.710938 C 131.863281 34.242188 131.863281 34.023438 132.167969 32.503906 C 132.359375 31.59375 132.710938 30.269531 132.960938 29.550781 L 133.449219 28.28125 L 140.808594 28.28125 L 141.160156 29.382812 C 141.378906 29.992188 141.707031 31.289062 141.902344 32.28125 C 142.390625 34.515625 142.089844 35.097656 140.261719 35.566406 C 139.492188 35.757812 139.03125 36.007812 139.113281 36.226562 C 139.195312 36.476562 140.671875 36.589844 144.578125 36.640625 C 149.117188 36.695312 149.96875 36.640625 149.96875 36.308594 C 149.96875 36.089844 149.390625 35.730469 148.601562 35.453125 C 147.644531 35.125 147.039062 34.710938 146.605469 34.074219 C 146.273438 33.582031 144.527344 28.640625 142.71875 23.097656 C 140.917969 17.523438 139.359375 12.96875 139.25 12.96875 C 139.140625 12.96875 138.921875 13.191406 138.785156 13.492188 Z M 138.839844 21.882812 C 139.550781 24.199219 140.121094 26.242188 140.121094 26.433594 C 140.121094 26.683594 139.273438 26.765625 137.117188 26.765625 C 135.472656 26.765625 134.109375 26.683594 134.109375 26.542969 C 134.109375 26.128906 137.253906 17.660156 137.386719 17.660156 C 137.472656 17.660156 138.125 19.5625 138.839844 21.882812 Z M 138.839844 21.882812 "/>
<path style=" stroke:none;fill-rule:nonzero;fill:rgb(0%,0%,0%);fill-opacity:1;" d="M 98.753906 13.792969 C 95.0625 14.457031 92.628906 17.796875 93.394531 21.246094 C 93.804688 23.097656 94.789062 24.140625 98.152344 26.375 C 99.847656 27.480469 101.542969 28.75 101.898438 29.21875 C 103.839844 31.539062 102.554688 35.398438 99.710938 35.789062 C 97.386719 36.089844 95.253906 34.492188 94.269531 31.757812 C 93.859375 30.601562 93.667969 30.351562 93.121094 30.351562 C 92.492188 30.351562 92.492188 30.351562 92.683594 32.476562 C 92.792969 33.664062 93.011719 34.847656 93.148438 35.125 C 93.285156 35.425781 94.105469 35.980469 94.953125 36.367188 C 97.960938 37.800781 102.363281 37.191406 104.386719 35.097656 C 105.699219 33.742188 106.21875 32.390625 106.21875 30.351562 C 106.21875 27.398438 105.179688 26.074219 100.3125 22.84375 C 97.414062 20.886719 96.648438 19.976562 96.648438 18.347656 C 96.648438 16.472656 97.550781 15.425781 99.574219 15.039062 C 101.40625 14.675781 102.910156 15.617188 104.113281 17.933594 C 104.550781 18.765625 104.960938 19.207031 105.398438 19.257812 C 106.027344 19.367188 106.027344 19.34375 105.859375 17.660156 C 105.617188 15.398438 105.207031 14.59375 104.03125 14.210938 C 102.636719 13.710938 100.257812 13.546875 98.753906 13.792969 Z M 98.753906 13.792969 "/>
<path style=" stroke:none;fill-rule:nonzero;fill:rgb(0%,0%,0%);fill-opacity:1;" d="M 115.707031 14.074219 C 111.523438 14.15625 108.953125 14.320312 108.925781 14.484375 C 108.925781 14.625 109.445312 14.953125 110.101562 15.175781 C 111.933594 15.835938 112.015625 16.28125 111.90625 26.128906 C 111.824219 35.375 111.90625 34.984375 109.9375 35.648438 C 109.335938 35.84375 108.816406 36.171875 108.734375 36.367188 C 108.648438 36.640625 109.71875 36.695312 113.792969 36.640625 C 116.769531 36.589844 118.90625 36.449219 118.878906 36.308594 C 118.847656 36.171875 118.222656 35.816406 117.484375 35.535156 C 116.71875 35.265625 116.035156 34.824219 115.925781 34.546875 C 115.816406 34.296875 115.648438 32.367188 115.566406 30.292969 C 115.488281 27.480469 115.542969 26.375 115.789062 26.074219 C 116.035156 25.773438 116.6875 25.660156 118.355469 25.660156 C 120.875 25.660156 121.203125 25.800781 121.773438 27.09375 C 122.023438 27.59375 122.351562 28.007812 122.488281 28.007812 C 122.652344 28.007812 122.789062 26.820312 122.84375 25.164062 C 122.898438 22.816406 122.84375 22.351562 122.511719 22.351562 C 122.292969 22.351562 121.882812 22.734375 121.613281 23.179688 C 121.367188 23.648438 120.957031 24.0625 120.710938 24.117188 C 120.328125 24.253906 116.636719 24.390625 115.871094 24.308594 C 115.433594 24.28125 115.378906 16.800781 115.789062 15.976562 C 116.058594 15.507812 116.390625 15.449219 119.015625 15.449219 C 122.433594 15.449219 122.921875 15.671875 123.71875 17.550781 C 124.648438 19.699219 125.03125 19.09375 124.808594 15.890625 L 124.675781 13.933594 L 123.582031 13.933594 C 122.980469 13.90625 119.453125 13.964844 115.707031 14.074219 Z M 115.707031 14.074219 "/>
<path style=" stroke:none;fill-rule:nonzero;fill:rgb(0%,0%,0%);fill-opacity:1;" d="M 58.039062 22.816406 L 57.960938 26.875 L 50.796875 29.773438 L 43.605469 32.667969 L 43.605469 48.007812 L 57 48.007812 L 57 36.695312 L 65.476562 36.695312 L 65.476562 48.007812 L 78.875 48.007812 L 78.875 32.667969 L 71.710938 29.773438 L 64.519531 26.875 L 64.441406 22.816406 L 64.359375 18.765625 L 58.121094 18.765625 Z M 60.285156 20.691406 C 59.984375 21 59.738281 21.578125 59.738281 22.019531 C 59.738281 22.460938 59.492188 22.984375 59.160156 23.257812 C 58.859375 23.535156 58.640625 23.8125 58.699219 23.894531 C 58.859375 24.0625 63.5625 24.085938 63.730469 23.921875 C 63.808594 23.839844 63.644531 23.566406 63.34375 23.289062 C 63.042969 22.984375 62.742188 22.296875 62.632812 21.742188 C 62.527344 21.160156 62.253906 20.582031 61.976562 20.445312 C 61.625 20.226562 61.8125 20.171875 62.824219 20.140625 L 64.113281 20.140625 L 64.113281 26.734375 L 62.691406 26.105469 L 61.242188 25.4375 L 59.820312 26.105469 L 58.371094 26.734375 L 58.371094 20.140625 L 60.828125 20.140625 Z M 62.144531 28.035156 C 62.691406 28.390625 62.742188 28.695312 62.742188 30.65625 L 62.742188 32.835938 L 59.738281 32.835938 L 59.738281 30.65625 C 59.738281 28.695312 59.789062 28.390625 60.335938 28.035156 C 60.667969 27.785156 61.078125 27.59375 61.242188 27.59375 C 61.40625 27.59375 61.8125 27.785156 62.144531 28.035156 Z M 52.355469 39.871094 L 52.355469 43.042969 L 47.980469 43.042969 L 47.980469 36.695312 L 52.355469 36.695312 Z M 74.5 39.871094 L 74.5 43.042969 L 70.125 43.042969 L 70.125 36.695312 L 74.5 36.695312 Z M 74.5 39.871094 "/>
<path style=" stroke:none;fill-rule:nonzero;fill:rgb(0%,0%,0%);fill-opacity:1;" d="M 92.546875 44.398438 C 92.546875 44.726562 92.738281 44.976562 92.957031 44.976562 C 93.3125 44.976562 93.367188 45.636719 93.367188 49.390625 C 93.367188 53.140625 93.3125 53.804688 92.957031 53.804688 C 92.738281 53.804688 92.546875 54.054688 92.546875 54.355469 C 92.546875 54.882812 92.738281 54.90625 95.363281 54.90625 C 97.195312 54.90625 98.289062 54.796875 98.507812 54.578125 C 98.726562 54.355469 98.835938 53.195312 98.835938 51.183594 C 98.835938 47.125 98.449219 46.710938 96.101562 48.285156 L 94.871094 49.113281 L 94.734375 46.546875 L 94.597656 44.007812 L 93.585938 43.925781 C 92.683594 43.84375 92.546875 43.925781 92.546875 44.398438 Z M 97.742188 51.183594 L 97.742188 53.804688 L 94.734375 53.804688 L 94.734375 50.355469 L 96.046875 49.472656 C 96.757812 49.003906 97.414062 48.589844 97.550781 48.589844 C 97.660156 48.5625 97.742188 49.75 97.742188 51.183594 Z M 97.742188 51.183594 "/>
<path style=" stroke:none;fill-rule:nonzero;fill:rgb(0%,0%,0%);fill-opacity:1;" d="M 104.578125 44.398438 C 104.578125 44.726562 104.769531 44.976562 104.988281 44.976562 C 105.34375 44.976562 105.398438 45.636719 105.398438 49.390625 C 105.398438 53.140625 105.34375 53.804688 104.988281 53.804688 C 104.769531 53.804688 104.578125 54.054688 104.578125 54.355469 C 104.578125 54.882812 104.769531 54.90625 107.203125 54.90625 C 110.945312 54.90625 110.867188 54.992188 110.867188 51.238281 C 110.867188 47.125 110.539062 46.769531 108.105469 48.285156 L 106.792969 49.085938 L 106.628906 44.007812 L 105.617188 43.925781 C 104.714844 43.84375 104.578125 43.925781 104.578125 44.398438 Z M 109.773438 51.183594 L 109.773438 53.804688 L 106.765625 53.804688 L 106.765625 50.273438 L 108.078125 49.445312 C 108.789062 48.976562 109.445312 48.589844 109.582031 48.589844 C 109.6875 48.5625 109.773438 49.75 109.773438 51.183594 Z M 109.773438 51.183594 "/>
<path style=" stroke:none;fill-rule:nonzero;fill:rgb(0%,0%,0%);fill-opacity:1;" d="M 112.425781 44.039062 C 112.09375 44.398438 112.207031 44.976562 112.644531 44.976562 C 113 44.976562 113.054688 45.636719 113.054688 49.390625 C 113.054688 53.140625 113 53.804688 112.644531 53.804688 C 112.425781 53.804688 112.234375 54.054688 112.234375 54.355469 C 112.234375 54.851562 112.425781 54.90625 113.738281 54.90625 C 115.050781 54.90625 115.242188 54.851562 115.242188 54.355469 C 115.242188 54.054688 115.050781 53.804688 114.832031 53.804688 C 114.503906 53.804688 114.421875 53.003906 114.367188 48.890625 L 114.285156 44.007812 L 113.464844 43.925781 C 113 43.871094 112.535156 43.925781 112.425781 44.039062 Z M 112.425781 44.039062 "/>
<path style=" stroke:none;fill-rule:nonzero;fill:rgb(0%,0%,0%);fill-opacity:1;" d="M 101.132812 45.390625 C 100.914062 45.910156 101.214844 46.351562 101.847656 46.351562 C 102.363281 46.351562 102.664062 45.882812 102.472656 45.308594 C 102.308594 44.839844 101.324219 44.890625 101.132812 45.390625 Z M 101.132812 45.390625 "/>
<path style=" stroke:none;fill-rule:nonzero;fill:rgb(0%,0%,0%);fill-opacity:1;" d="M 117.648438 45.308594 C 117.429688 45.882812 117.703125 46.351562 118.25 46.351562 C 118.878906 46.351562 119.125 45.996094 118.90625 45.417969 C 118.714844 44.890625 117.808594 44.839844 117.648438 45.308594 Z M 117.648438 45.308594 "/>
<path style=" stroke:none;fill-rule:nonzero;fill:rgb(0%,0%,0%);fill-opacity:1;" d="M 100.203125 48.144531 C 100.203125 48.367188 100.449219 48.5625 100.75 48.5625 C 101.269531 48.5625 101.296875 48.757812 101.296875 51.152344 C 101.296875 53.558594 101.242188 53.75 100.722656 53.886719 C 99.601562 54.191406 100.339844 54.769531 101.847656 54.769531 C 103.347656 54.769531 104.085938 54.191406 102.964844 53.886719 C 102.417969 53.75 102.390625 53.558594 102.390625 50.742188 L 102.390625 47.734375 L 101.296875 47.734375 C 100.503906 47.734375 100.203125 47.847656 100.203125 48.144531 Z M 100.203125 48.144531 "/>
<path style=" stroke:none;fill-rule:nonzero;fill:rgb(0%,0%,0%);fill-opacity:1;" d="M 116.609375 48.144531 C 116.609375 48.367188 116.855469 48.5625 117.15625 48.5625 C 117.675781 48.5625 117.703125 48.757812 117.703125 51.152344 C 117.703125 53.558594 117.648438 53.75 117.128906 53.886719 C 116.007812 54.191406 116.746094 54.769531 118.328125 54.851562 C 119.753906 54.933594 119.890625 54.882812 119.890625 54.355469 C 119.890625 54 119.699219 53.804688 119.34375 53.804688 C 118.824219 53.804688 118.796875 53.609375 118.796875 50.769531 L 118.796875 47.734375 L 117.703125 47.734375 C 116.910156 47.734375 116.609375 47.847656 116.609375 48.144531 Z M 116.609375 48.144531 "/>
<path style=" stroke:none;fill-rule:nonzero;fill:rgb(0%,0%,0%);fill-opacity:1;" d="M 121.144531 48.144531 C 120.847656 49.003906 120.957031 54.21875 121.3125 54.578125 C 121.695312 54.960938 125.304688 55.019531 125.847656 54.6875 C 126.097656 54.492188 126.175781 53.609375 126.125 51.152344 L 126.039062 47.875 L 123.6875 47.789062 C 121.722656 47.734375 121.285156 47.789062 121.144531 48.144531 Z M 125.085938 51.183594 L 125.085938 53.804688 L 122.078125 53.804688 L 122.078125 48.5625 L 125.085938 48.5625 Z M 125.085938 51.183594 "/>
</g>
</svg>
